<?xml version="1.0" encoding="UTF-8"?>
<svg xmlns="http://www.w3.org/2000/svg" xmlns:xlink="http://www.w3.org/1999/xlink" width="30pt" height="30.000001pt" viewBox="0 0 30 30.000001" version="1.2">
<defs>
<clipPath id="clip1">
  <path d="M 13 1.414062 L 29.515625 1.414062 L 29.515625 27.542969 L 13 27.542969 Z M 13 1.414062 "/>
</clipPath>
<clipPath id="clip2">
  <path d="M 13 1.414062 L 28 1.414062 L 28 27.542969 L 13 27.542969 Z M 13 1.414062 "/>
</clipPath>
<clipPath id="clip3">
  <path d="M 0.484375 1.414062 L 17 1.414062 L 17 27.542969 L 0.484375 27.542969 Z M 0.484375 1.414062 "/>
</clipPath>
<clipPath id="clip4">
  <path d="M 0.484375 1.414062 L 15 1.414062 L 15 27.542969 L 0.484375 27.542969 Z M 0.484375 1.414062 "/>
</clipPath>
</defs>
<g id="surface1">
<g clip-path="url(#clip1)" clip-rule="nonzero">
<path style=" stroke:none;fill-rule:nonzero;fill:rgb(100%,100%,100%);fill-opacity:1;" d="M 26.589844 27.449219 C 27.25 27.449219 27.910156 27.167969 28.382812 26.699219 C 29.417969 25.664062 29.417969 24.066406 28.382812 23.03125 L 19.898438 14.574219 L 28.382812 6.113281 C 29.417969 5.082031 29.417969 3.484375 28.382812 2.449219 C 27.34375 1.414062 25.742188 1.414062 24.707031 2.449219 L 14.433594 12.882812 C 13.398438 13.914062 13.398438 15.515625 14.433594 16.546875 L 24.707031 26.792969 C 25.273438 27.261719 25.929688 27.449219 26.589844 27.449219 Z M 26.589844 27.449219 "/>
</g>
<g clip-path="url(#clip2)" clip-rule="nonzero">
<path style=" stroke:none;fill-rule:nonzero;fill:rgb(100%,39.99939%,76.858521%);fill-opacity:1;" d="M 26.589844 26.699219 L 16.320312 16.453125 C 15.28125 15.417969 15.28125 13.820312 16.320312 12.789062 L 26.589844 2.542969 C 26.875 2.261719 27.15625 2.074219 27.4375 1.980469 C 26.496094 1.601562 25.460938 1.792969 24.707031 2.542969 L 14.433594 12.882812 C 13.398438 13.914062 13.398438 15.515625 14.433594 16.546875 L 24.707031 26.792969 C 25.175781 27.261719 25.835938 27.542969 26.496094 27.542969 C 26.777344 27.542969 27.15625 27.449219 27.4375 27.355469 C 27.15625 27.167969 26.875 26.980469 26.589844 26.699219 Z M 26.589844 26.699219 "/>
</g>
<g clip-path="url(#clip3)" clip-rule="nonzero">
<path style=" stroke:none;fill-rule:nonzero;fill:rgb(100%,100%,100%);fill-opacity:1;" d="M 13.679688 27.449219 C 14.339844 27.449219 15 27.167969 15.472656 26.699219 C 16.507812 25.664062 16.507812 24.066406 15.472656 23.03125 L 6.988281 14.574219 L 15.472656 6.113281 C 16.507812 5.082031 16.507812 3.484375 15.472656 2.449219 C 14.433594 1.414062 12.832031 1.414062 11.796875 2.449219 L 1.617188 12.882812 C 0.582031 13.914062 0.582031 15.515625 1.617188 16.546875 L 11.890625 26.792969 C 12.363281 27.261719 13.019531 27.449219 13.679688 27.449219 Z M 13.679688 27.449219 "/>
</g>
<g clip-path="url(#clip4)" clip-rule="nonzero">
<path style=" stroke:none;fill-rule:nonzero;fill:rgb(100%,39.99939%,76.858521%);fill-opacity:1;" d="M 13.773438 26.699219 L 3.503906 16.453125 C 2.46875 15.417969 2.46875 13.820312 3.503906 12.789062 L 13.773438 2.542969 C 14.058594 2.261719 14.339844 2.074219 14.625 1.980469 C 13.679688 1.601562 12.644531 1.792969 11.890625 2.542969 L 1.617188 12.882812 C 0.582031 13.914062 0.582031 15.515625 1.617188 16.546875 L 11.890625 26.792969 C 12.363281 27.261719 13.019531 27.542969 13.679688 27.542969 C 13.964844 27.542969 14.339844 27.449219 14.625 27.355469 C 14.339844 27.167969 14.058594 26.980469 13.773438 26.699219 Z M 13.773438 26.699219 "/>
</g>
</g>
</svg>
